<svg xmlns="http://www.w3.org/2000/svg" width="37.182" height="24.75"><g fill="#d2a76b"><path data-name="Path 23601" d="M13.378 3.565H7.595l-2.84 9.431A86.451 86.451 0 0 0 17.83 24.577a.874.874 0 0 0 1.146-.089.912.912 0 0 0 0-1.273l-1.551-1.563-1.776-1.786a.745.745 0 0 1 0-1.05.733.733 0 0 1 1.043 0l4.133 4.161a1.155 1.155 0 0 0 1.627 0 1.171 1.171 0 0 0 .015-1.63l-3.653-3.8a.754.754 0 0 1 .022-1.057.733.733 0 0 1 1.043.022l.584.6 3.069 3.2.821.849a1.212 1.212 0 0 0 2.078-.819 1.24 1.24 0 0 0-.37-.9l-2.736-2.673-1.8-1.757a.738.738 0 0 1-.015-1.049.727.727 0 0 1 1.043-.015l5.3 5.158a1.113 1.113 0 0 0 1.575-.007 1.089 1.089 0 0 0 .34-.826 1.128 1.128 0 0 0-.37-.819L19.361 8.217a6.9 6.9 0 0 0-3.136 1.906.545.545 0 0 1-.141.119c-2.751 1.794-4.371.342-4.437.283-1.457-1.332-.762-3.431-.126-4.466a15.636 15.636 0 0 1 1.857-2.494Z"/><path data-name="Path 23602" d="M20.823 2.005a3.331 3.331 0 0 0-2.389-.052 10.9 10.9 0 0 0-5.45 4.87c-.015.022-1.05 1.738-.133 2.566.022.022.873.688 2.566-.385a7.8 7.8 0 0 1 4.326-2.33.737.737 0 0 1 .569.192l10.28 9.415c.007 0 .007 0 .007.007a3.14 3.14 0 0 0 1.694-1.309L28.67 5.123Z"/><path data-name="Path 23603" d="M36.371 1.93a22.1 22.1 0 0 0-6.042 1.146.846.846 0 0 0-.444 1.065l4.376 11.893a.867.867 0 0 0 .8.555h1.361a.761.761 0 0 0 .762-.762V2.685a.75.75 0 0 0-.813-.755Z"/><path data-name="Path 23604" d="M.762 14.695h1.287a.841.841 0 0 0 .814-.6L6.45 2.232A.847.847 0 0 0 6 1.213 14.417 14.417 0 0 0 .794 0 .758.758 0 0 0 0 .762v13.171a.761.761 0 0 0 .762.762Z"/></g></svg>