<svg width="72" height="72" fill="none" xmlns="http://www.w3.org/2000/svg"><g filter="url(#a)"><path opacity=".1" d="M56 3H16C10.477 3 6 7.477 6 13v40c0 5.523 4.477 10 10 10h40c5.523 0 10-4.477 10-10V13c0-5.523-4.477-10-10-10Z" fill="#fff"/></g><path d="M48.293 39.375h-2.221v-1.039a1 1 0 0 0-1.008-.859v-9.529a1.568 1.568 0 1 0-3.136 0v9.529a1 1 0 0 0-1.008.859v1.039h-2.222a.925.925 0 0 0-.924.924v6.107a.925.925 0 0 0 .924.924h9.6a.924.924 0 0 0 .924-.924V40.3a.926.926 0 0 0-.93-.925Zm-3.166 0h-3.265v-.78a.447.447 0 0 1 .246-.385 1.567 1.567 0 0 0 2.773 0 .445.445 0 0 1 .246.385v.78ZM23.749 19.461a3.46 3.46 0 1 1 6.921 0 3.46 3.46 0 0 1-6.921 0Zm16.286 0a3.46 3.46 0 1 1 6.924 0 3.46 3.46 0 0 1-6.925 0Zm-3.66 11.433a1.488 1.488 0 0 1-1.487 1.488h-5.53a1.489 1.489 0 0 1-1.217-.631l-2.764-3.927a1.488 1.488 0 0 1 2.43-1.713l2.32 3.3h4.758a1.488 1.488 0 0 1 1.49 1.483Zm-3.906 17.182a1.864 1.864 0 0 1-1.496 2.167 1.864 1.864 0 0 1-2.167-1.495l-1.558-9.405-1.558 9.405a1.862 1.862 0 1 1-3.663-.672l1.6-9.661v-11.24a3.548 3.548 0 0 1 7.095 0v1.883H30.5l-2.24-3.243a2 2 0 0 0-2.866-.385 1.869 1.869 0 0 0-.4 2.731l2.713 3.958a1.851 1.851 0 0 0 1.647.834h1.54v5.627l1.574 9.496Zm7.339-15.694h-3.531a1.964 1.964 0 0 0 0-2.976h3.53v-2.232a3.54 3.54 0 1 1 7.082 0v11.845h-.461v-.682a1.217 1.217 0 0 0-.741-1.119v-9.327a2.192 2.192 0 1 0-4.385 0v9.326a1.218 1.218 0 0 0-.741 1.119v.682h-.753v-6.636Zm-1.11 15.306h3.3l-.175 1.06a1.862 1.862 0 1 1-3.663-.672l.078-.474c.147.057.303.086.46.086Zm9.905.388a1.862 1.862 0 0 1-3.663.672l-.176-1.06h3.529c.08 0 .162-.008.24-.023l.07.411Z" fill="#fff"/><defs><filter id="a" x="0" y="0" width="72" height="72" filterUnits="userSpaceOnUse" color-interpolation-filters="sRGB"><feFlood flood-opacity="0" result="BackgroundImageFix"/><feColorMatrix in="SourceAlpha" values="0 0 0 0 0 0 0 0 0 0 0 0 0 0 0 0 0 0 127 0" result="hardAlpha"/><feOffset dy="3"/><feGaussianBlur stdDeviation="3"/><feColorMatrix values="0 0 0 0 0 0 0 0 0 0 0 0 0 0 0 0 0 0 0.161 0"/><feBlend in2="BackgroundImageFix" result="effect1_dropShadow_62:22"/><feBlend in="SourceGraphic" in2="effect1_dropShadow_62:22" result="shape"/></filter></defs></svg>