<svg xmlns="http://www.w3.org/2000/svg" width="20" height="13.501"><path data-name="Icon zocial-email" d="M0 12.305V1.196Q0 1.177.058.83l6.538 5.592-6.519 6.269A1.635 1.635 0 0 1 0 12.305ZM.868.058A.831.831 0 0 1 1.196 0h17.608a1.092 1.092 0 0 1 .347.058L12.594 5.67l-.868.694-1.716 1.408-1.717-1.407-.865-.695Zm.019 13.385 6.577-6.311 2.546 2.064 2.545-2.064 6.573 6.311a.926.926 0 0 1-.328.058H1.196a.873.873 0 0 1-.309-.058Zm12.541-7.021 6.514-5.59a1.151 1.151 0 0 1 .058.366v11.107a1.478 1.478 0 0 1-.058.386Z" fill="#fff"/></svg>