<svg xmlns="http://www.w3.org/2000/svg" width="25.455" height="32"><g data-name="Group 17010"><path data-name="Path 23596" d="M17.206 19.053h4.862a7.922 7.922 0 0 1-2.969 5.9l.55 7.047H2.769l.229-7.045c-3.524-2.6-2.967-7.418-2.967-7.418v-4.556a3.57 3.57 0 0 0 5.377-.709 3.576 3.576 0 0 0 5.99 0 3.6 3.6 0 0 0 1.458 1.271 4.4 4.4 0 0 0-.126 1.035 4.479 4.479 0 0 0 4.476 4.475Zm.772-8.949h4.178a4.341 4.341 0 0 1 .638.051V2.407a2.408 2.408 0 0 0-4.816 0Zm-4.7 2.338a4.482 4.482 0 0 1 3.527-2.318V2.407a2.408 2.408 0 0 0-4.815 0v7.9a2.41 2.41 0 0 0 1.286 2.135Zm-2.464-2.13v-7.9a2.408 2.408 0 0 0-4.815 0v7.9a2.408 2.408 0 1 0 4.815 0Zm-5.991 0V4.975a2.408 2.408 0 1 0-4.815 0v5.336a2.408 2.408 0 1 0 4.815 0Zm17.335.967h-4.952a3.3 3.3 0 0 0 0 6.6h4.95a3.3 3.3 0 0 0 0-6.6Z" fill="#d2a76b"/></g></svg>