<svg xmlns="http://www.w3.org/2000/svg" width="60.156" height="63"><g data-name="Group 10394" transform="translate(-1287 -3163)"><path data-name="Path 23577" d="M1295.108 3207.182h43.784c4.478 0 8.108 4.012 8.108 8.961v.9c0 4.949-3.63 8.961-8.108 8.961h-43.784c-4.478-.004-8.108-4.016-8.108-8.965v-.9c0-4.945 3.63-8.957 8.108-8.957Z" fill="#d2a76b"/><rect data-name="Rectangle 2942" width="60" height="60" rx="10" transform="translate(1287.156 3163)" fill="#fff"/><g data-name="Group 16977" fill="#d2a76b"><path data-name="Path 23581" d="M1312.045 3185.45h10.893a.753.753 0 0 0 .707-.781v-3.405a.753.753 0 0 0-.707-.781h-1.834v-.067a3.784 3.784 0 0 0-3.6-3.8 3.784 3.784 0 0 0-3.6 3.8v.071h-1.859a.753.753 0 0 0-.707.781v3.406a.753.753 0 0 0 .707.776Zm5.461-6.493a1.52 1.52 0 0 1 1.446 1.6 1.453 1.453 0 1 1-2.891 0 1.543 1.543 0 0 1 1.445-1.599Z"/><path data-name="Path 23582" d="M1328.168 3182.789h-2.462v1.733a2.461 2.461 0 0 1-2.462 2.433h-11.43a2.461 2.461 0 0 1-2.462-2.433v-1.733h-2.326a1.717 1.717 0 0 0-1.72 1.7v22.427a1.717 1.717 0 0 0 1.72 1.7h21.18a1.717 1.717 0 0 0 1.72-1.7v-22.427a1.769 1.769 0 0 0-1.758-1.7Zm-3.439 20.528a.565.565 0 0 1-.573.567h-13.118a.565.565 0 0 1-.573-.567v-.966a.565.565 0 0 1 .573-.562h13.084a.565.565 0 0 1 .573.567v.966Zm0-5.365a.565.565 0 0 1-.573.567h-13.118a.565.565 0 0 1-.573-.567v-.963a.565.565 0 0 1 .573-.567h13.084a.565.565 0 0 1 .573.567v.966Zm0-5.365a.565.565 0 0 1-.573.567h-13.118a.565.565 0 0 1-.573-.567v-.966a.565.565 0 0 1 .573-.567h13.084a.565.565 0 0 1 .573.567v.968Z"/></g></g></svg>