<svg xmlns="http://www.w3.org/2000/svg" width="20" height="20" viewBox="0 0 20 20">
  <g id="Group_9142" data-name="Group 9142" transform="translate(0.086 -0.181)">
    <rect id="Rectangle_2626" data-name="Rectangle 2626" width="20" height="20" transform="translate(-0.086 0.181)" fill="none"/>
    <g id="google_1_" data-name="google(1)" transform="translate(1.697 1.697)">
      <path id="Path_17980" data-name="Path 17980" d="M251.037,198.007a8.546,8.546,0,0,0-.151-1.6.5.5,0,0,0-.493-.408H242.5a.5.5,0,0,0-.5.5v3.012a.5.5,0,0,0,.5.5h4.049a4.5,4.5,0,0,1-1.008,1.327l2.838,2.838A8.5,8.5,0,0,0,251.037,198.007Z" transform="translate(-234.069 -189.608)" fill="#dfdfdf"/>
      <path id="Path_17981" data-name="Path 17981" d="M51.737,4.017a4.474,4.474,0,0,1,2.709.905.5.5,0,0,0,.657-.047l2.143-2.143a.5.5,0,0,0-.032-.74,8.526,8.526,0,0,0-12.55,1.771L47.61,6.711A4.52,4.52,0,0,1,51.737,4.017Z" transform="translate(-43.168 0)" fill="#dfdfdf"/>
      <path id="Path_17982" data-name="Path 17982" d="M51.737,318.211a8.479,8.479,0,0,0,5.108-1.713l-2.891-2.891A4.5,4.5,0,0,1,47.61,311.5l-2.947,2.947A8.534,8.534,0,0,0,51.737,318.211Z" transform="translate(-43.168 -301.243)" fill="#dfdfdf"/>
      <path id="Path_17983" data-name="Path 17983" d="M4.09,144.868a3.613,3.613,0,0,1,0-1.446L.939,140.271a8.458,8.458,0,0,0,0,7.747Z" transform="translate(0 -135.66)" fill="#dfdfdf"/>
    </g>
  </g>
</svg>
