<svg xmlns="http://www.w3.org/2000/svg" width="20" height="20" viewBox="0 0 20 20">
  <g id="Group_9141" data-name="Group 9141" transform="translate(-0.426 -0.181)">
    <rect id="Rectangle_2626" data-name="Rectangle 2626" width="20" height="20" transform="translate(0.426 0.181)" fill="none"/>
    <g id="noun_insta_3324511" transform="translate(1.697 1.697)">
      <g id="Group_9132" data-name="Group 9132" transform="translate(0)">
        <path id="Path_17975" data-name="Path 17975" d="M19.512,8.5H14.457A5.963,5.963,0,0,0,8.5,14.457v5.054a5.963,5.963,0,0,0,5.957,5.957h5.054a5.963,5.963,0,0,0,5.957-5.957V14.457A5.963,5.963,0,0,0,19.512,8.5ZM16.984,20.934a3.95,3.95,0,1,1,3.95-3.95,3.95,3.95,0,0,1-3.95,3.95Zm5.065-7.715a.659.659,0,0,1-.108.09.838.838,0,0,1-.126.065.569.569,0,0,1-.134.04.622.622,0,0,1-.141.014.792.792,0,0,1-.278-.054.8.8,0,0,1-.123-.065.884.884,0,0,1-.112-.09.73.73,0,0,1-.209-.513.622.622,0,0,1,.014-.141.57.57,0,0,1,.04-.134.834.834,0,0,1,.065-.126.9.9,0,0,1,.09-.108.875.875,0,0,1,.112-.09.792.792,0,0,1,.123-.065A.867.867,0,0,1,21.4,12a.723.723,0,0,1,.65.2.652.652,0,0,1,.09.108.854.854,0,0,1,.069.126.816.816,0,0,1,.04.134.931.931,0,0,1,.014.141.718.718,0,0,1-.213.513Zm-5.065.9a2.867,2.867,0,1,0,2.867,2.867A2.867,2.867,0,0,0,16.984,14.118Zm-.35,1.867a1.061,1.061,0,0,0-.711,1,.542.542,0,1,1-1.083,0,2.144,2.144,0,0,1,1.437-2.022.541.541,0,1,1,.357,1.022Z" transform="translate(-8.5 -8.5)" fill="#d2a76b"/>
      </g>
    </g>
  </g>
</svg>
