<svg xmlns="http://www.w3.org/2000/svg" width="60.156" height="63"><g data-name="Group 16974" transform="translate(-1287 -3163)"><path data-name="Path 23577" d="M1295.108 3207.182h43.784c4.478 0 8.108 4.012 8.108 8.961v.9c0 4.949-3.63 8.961-8.108 8.961h-43.784c-4.478-.004-8.108-4.016-8.108-8.965v-.9c0-4.945 3.63-8.957 8.108-8.957Z" fill="#d2a76b"/><rect data-name="Rectangle 2942" width="60" height="60" rx="10" transform="translate(1287.156 3163)" fill="#fff"/><g data-name="Group 10344"><path data-name="Path 18962" d="M1317.156 3177a.667.667 0 0 0-.667.667v2.671a.667.667 0 1 0 1.333 0v-2.667a.667.667 0 0 0-.666-.671Zm-9.427 3.906a.667.667 0 0 0-.473 1.132l1.885 1.885a.663.663 0 1 0 .937-.938l-1.885-1.885a.661.661 0 0 0-.464-.194Zm18.854 0a.661.661 0 0 0-.469.2l-1.885 1.885a.663.663 0 0 0 .937.938l1.89-1.891a.667.667 0 0 0-.469-1.135Zm-9.427 2.094c-4.065 0-8 3.154-8 7.615 0 5.788 4.333 7 4.333 11.052h7.333c0-4.052 4.333-5.264 4.333-11.052 0-4.461-3.935-7.615-8-7.615Zm-2.052 2.021h.062a.667.667 0 0 1 .229 1.292 5.01 5.01 0 0 0-3.156 3.8.667.667 0 1 1-1.313-.24 6.313 6.313 0 0 1 3.99-4.8.664.664 0 0 1 .188-.052Zm-11.281 5.317a.667.667 0 1 0 0 1.333h2.667a.667.667 0 1 0 0-1.333Zm24 0a.667.667 0 1 0 0 1.333h2.667a.667.667 0 1 0 0-1.333ZM1313.489 3203v1.338h7.333v-1.333Zm0 2.667a1.335 1.335 0 0 0 1.333 1.333h4.667a1.335 1.335 0 0 0 1.333-1.333Zm2.333 2a1.333 1.333 0 0 0 2.667 0Z" fill="#d2a76b"/></g></g></svg>