<svg xmlns="http://www.w3.org/2000/svg" width="32.1" height="28"><g transform="translate(-2 -6.821)" fill="#d2a76b"><circle data-name="Ellipse 973" cx="3" cy="3" r="3" transform="translate(15 6.821)"/><path data-name="Path 23622" d="M9.49 29.47H4.675a2.675 2.675 0 0 0 0 5.35h7.49v-1.07h-7.49a1.605 1.605 0 0 1 0-3.21H9.49a2.675 2.675 0 1 0 0-5.35H4.675a1.605 1.605 0 0 1 0-3.21h3.21a.535.535 0 0 0 .535-.535v-3.777a5.27 5.27 0 0 0 2.68-1.038l-4.317-1.84a2.574 2.574 0 1 1 1.969-4.756s4.28 1.5 4.441 1.557a5.35 5.35 0 1 0-5.837 6.11v3.21H4.675a2.675 2.675 0 0 0 0 5.35H9.49a1.605 1.605 0 1 1 0 3.21Z"/><path data-name="Path 23623" d="M26.614 26.26h4.815a2.675 2.675 0 1 0 0-5.35H28.75V17.7a5.35 5.35 0 1 0-5.826-6.1c.171-.053 4.478-1.568 4.478-1.568a2.541 2.541 0 0 1 2.359.273 2.573 2.573 0 0 1-.428 4.494l-4.328 1.835a5.286 5.286 0 0 0 2.675 1.027v3.788a.535.535 0 0 0 .534.528h3.21a1.605 1.605 0 0 1 0 3.21h-4.81a2.675 2.675 0 1 0 0 5.35h4.815a1.605 1.605 0 0 1 0 3.21h-7.49v1.07h7.49a2.675 2.675 0 1 0 0-5.35h-4.815a1.605 1.605 0 0 1 0-3.21Z"/><path data-name="Path 23624" d="M29.82 12.431a1.5 1.5 0 0 0-2.06-1.4l-3.97 1.412a17.12 17.12 0 0 1-11.481 0l-3.97-1.412a1.503 1.503 0 0 0-1.15 2.777l5.944 2.547a1.07 1.07 0 0 1 .637.963v15.796a1.669 1.669 0 0 0 1.723 1.707 1.6 1.6 0 0 0 1.487-1.6v-8.56a1.07 1.07 0 0 1 2.14 0v8.437a1.68 1.68 0 0 0 1.742 1.722 1.605 1.605 0 0 0 1.471-1.605V17.337a1.07 1.07 0 0 1 .647-.984l5.933-2.541a1.5 1.5 0 0 0 .907-1.381Z"/></g></svg>