<svg xmlns="http://www.w3.org/2000/svg" width="32" height="30.66"><g data-name="Group 17013" fill="#d2a76b"><path data-name="Path 23619" d="m3.953 12.644 2.138-2.205a1.868 1.868 0 0 1 .78-.475.991.991 0 0 1 .305-.068l-1.8 3.223a2.605 2.605 0 0 0-.2 2.07 2.657 2.657 0 0 0 1.255 1.527l-4.48 7.977a1.556 1.556 0 0 0 .611 2.1 1.461 1.461 0 0 0 1.052.17 1.525 1.525 0 0 0 1.052-.78l4.513-8.075 1.663.814-.305 4.648a1.557 1.557 0 0 0 1.459 1.663 1.652 1.652 0 0 0 .407-.034 1.589 1.589 0 0 0 1.255-1.425l.339-4.954a2.639 2.639 0 0 0-1.459-2.545l-1.832-.848 1.7-3.054c.034.1.068.2.1.339a3.247 3.247 0 0 0 1.73 1.934l2.511 1.154a1.241 1.241 0 0 0 .848.1 1.254 1.254 0 0 0 .95-.746 1.353 1.353 0 0 0-.645-1.8l-2.513-1.151a.607.607 0 0 1-.305-.339c-1.256-3.871-1.662-4.171-2.308-4.411l-2.07-.746c-.407-.136-.78-.271-4.513.679A4.545 4.545 0 0 0 4.12 8.572l-2.135 2.206a1.356 1.356 0 0 0 1.968 1.866Z"/><circle data-name="Ellipse 972" cx="2.986" cy="2.986" r="2.986" transform="rotate(-67.43 8.791 -4.226)"/><path data-name="Path 23620" d="M30.855 23.162.69 28.963a.856.856 0 0 0 .168 1.7h30.166a.981.981 0 0 0 .976-.984v-5.567a.978.978 0 0 0-1.145-.95Z"/><path data-name="Path 23621" d="M21.821 13.189h1.868a.413.413 0 0 1 .407.407l-.307 4.92a.756.756 0 0 0 1.391.441l4.954-8.143a.737.737 0 0 0-.645-1.12h-1.866a.413.413 0 0 1-.407-.407l.305-4.92a.756.756 0 0 0-1.391-.441l-4.954 8.143a.743.743 0 0 0 .645 1.12Z"/></g></svg>