<svg xmlns="http://www.w3.org/2000/svg" width="32" height="30.837"><g transform="translate(-32 -32)" fill="#d2a76b"><path data-name="Path 23625" d="M52.921 34.193V32h-2.193v2.255a9.8 9.8 0 0 1 1.1-.062Z"/><path data-name="Path 23626" d="M55.13 33.1a1.1 1.1 0 0 0-1.1-1.1v2.193a1.1 1.1 0 0 0 1.1-1.093Z"/><circle data-name="Ellipse 974" cx=".5" cy=".5" r=".5" transform="translate(36 42.755)"/><path data-name="Path 23627" d="m41.494 46.662 1.09.953a9.679 9.679 0 0 1-.658-3.551 9.884 9.884 0 0 1 7.677-9.624V32h-2.379a1.644 1.644 0 0 0-1.165.48L41.528 37a1.644 1.644 0 0 1-1.165.48h-.089v8.774h.137a1.657 1.657 0 0 1 1.083.408Z"/><path data-name="Path 23628" d="M58.458 41.905h3.29a1.1 1.1 0 0 0 0-2.193h-3.29a1.1 1.1 0 1 0 0 2.193Z"/><path data-name="Path 23629" d="M59.006 38.58h1.1a1.1 1.1 0 0 0 0-2.193h-1.1a1.1 1.1 0 1 0 0 2.193Z"/><path data-name="Path 23630" d="m45.614 50.233-.007.007a8.769 8.769 0 0 0 12.4.062 8.866 8.866 0 0 0 .679-.754h-2.468a2.194 2.194 0 0 1-.727-4.263 2.2 2.2 0 0 1 .6-3.043 2.265 2.265 0 0 1 .5-.247 2.2 2.2 0 0 1 .6-3.043c.034-.021.062-.041.1-.062a2.186 2.186 0 0 1-.425-2.022 8.77 8.77 0 0 0-11.344 13.27Zm5.669-6.4v-6.9h1.1v7.355l-3.448 3.448-.775-.775Z"/><path data-name="Path 23631" d="M39.129 37.516h-2.193v3.29h-1.1v-3.29h-2.739v8.774h6.032Zm-2.742 7.677a1.645 1.645 0 1 1 1.645-1.645 1.641 1.641 0 0 1-1.645 1.645Z"/><path data-name="Path 23632" d="M56.265 46.322a1.1 1.1 0 1 0 0 2.193h3.29a1.1 1.1 0 0 0 0-2.193Z"/><path data-name="Path 23633" d="M56.261 44.117a1.1 1.1 0 0 0 1.1 1.1h3.29a1.1 1.1 0 0 0 0-2.193h-3.29a1.1 1.1 0 0 0-1.1 1.093Z"/><path data-name="Path 23634" d="M42.419 52.381h-1.645v-1.1h-1.1v1.1H35.29v-1.1h-1.1v1.1h-1.642a.55.55 0 0 0-.548.548v1.1h10.967v-1.1a.55.55 0 0 0-.548-.548Z"/><path data-name="Path 23635" d="M32 62.289a.55.55 0 0 0 .548.548h9.87a.55.55 0 0 0 .548-.548V55.16H32Zm8.225-6.032h1.1v1.1h-1.1Zm0 2.193h1.1v1.1h-1.1Zm0 2.193h1.1v1.1h-1.1Zm-2.193-4.383h1.1v1.1h-1.1Zm0 2.193h1.1v1.1h-1.1Zm0 2.193h1.1v1.1h-1.1Zm-2.193-4.386h1.1v1.1h-1.1Zm0 2.193h1.1v1.1h-1.1Zm0 2.193h1.1v1.1h-1.1Zm-2.194-4.386h1.1v1.1h-1.1Zm0 2.193h1.1v1.1h-1.1Zm0 2.193h1.1v1.1h-1.1Z"/><path data-name="Path 23636" d="m64 49.309-1.008-.432a12.07 12.07 0 0 1-15.834 6.382 12.669 12.669 0 0 1-1.577-.809l-.576.932a13.154 13.154 0 0 0 18.994-6.073Z"/><path data-name="Path 23637" d="M58.023 58.265a15.4 15.4 0 0 1-12.5-.089l-.452 1a16.448 16.448 0 0 0 18.72-3.633l-.8-.754a15.352 15.352 0 0 1-4.968 3.476Z"/></g></svg>