<svg xmlns="http://www.w3.org/2000/svg" width="31.837" height="32"><g transform="translate(0 .199)" fill="#d2a76b"><ellipse data-name="Ellipse 971" cx="6.211" cy="6.599" rx="6.211" ry="6.599" transform="translate(7.664 -.199)"/><path data-name="Path 23617" d="M19.131 17.068h-.022a.444.444 0 0 0-.443.419 17.559 17.559 0 0 0 .6 4.962c.951 3.5 2.927 5.91 5.713 6.969a.452.452 0 0 0 .16.029.447.447 0 0 0 .114-.015 7.678 7.678 0 0 0 3.266-2.125c1.459-1.523 3.218-4.42 3.317-9.57a.442.442 0 0 0-.382-.445c-.039-.006-3.952-.589-5.867-2.756a.449.449 0 0 0-.329-.15h-.015a.448.448 0 0 0-.318.137c-.024.026-2.491 2.55-5.558 2.55a3.764 3.764 0 0 1-.236-.005Zm2.948 4.318a.471.471 0 0 1 .665-.023l1.671 1.561 3.343-3.004a.471.471 0 1 1 .63.7l-3.661 3.295a.471.471 0 0 1-.636-.006l-1.987-1.855a.471.471 0 0 1-.025-.668Z"/><path data-name="Path 23618" d="M2.363 31.801h23.815a2.294 2.294 0 0 0 2.364-2.215v-1a8.822 8.822 0 0 1-3.242 1.757 1.572 1.572 0 0 1-.9-.045 10.751 10.751 0 0 1-6.688-7.6 17.533 17.533 0 0 1-.673-5.255 1.434 1.434 0 0 1 1.472-1.314h.278a7.508 7.508 0 0 0 3.925-1.3 14.02 14.02 0 0 0-3.28-1.353 8.114 8.114 0 0 1-10.313 0C4.016 14.865 0 18.986 0 24.217v5.369a2.293 2.293 0 0 0 2.363 2.215Zm5.4-14.826a.472.472 0 1 1-.5.471.486.486 0 0 1 .498-.471Zm-4.258 6.638a7.2 7.2 0 0 1 2.426-5.328.523.523 0 0 1 .708.008.451.451 0 0 1-.009.666 6.292 6.292 0 0 0-2.124 4.654v3.932c0 .356.045.436.054.448a1.357 1.357 0 0 0 .464.043h7.494a.472.472 0 1 1 0 .941H5.024c-1.107 0-1.519-.388-1.519-1.432Z"/></g></svg>